<?xml version="1.0" encoding="UTF-8" standalone="no"?>
<svg
   id="logo-34"
   width="155"
   height="40"
   viewBox="0 0 155 40"
   fill="none"
   version="1.1"
   sodipodi:docname="redditgeeks-icon.svg"
   inkscape:version="1.2.1 (9c6d41e410, 2022-07-14)"
   xmlns:inkscape="http://www.inkscape.org/namespaces/inkscape"
   xmlns:sodipodi="http://sodipodi.sourceforge.net/DTD/sodipodi-0.dtd"
   xmlns="http://www.w3.org/2000/svg"
   xmlns:svg="http://www.w3.org/2000/svg">
  <defs
     id="defs131" />
  <sodipodi:namedview
     id="namedview129"
     pagecolor="#ffffff"
     bordercolor="#000000"
     borderopacity="0.25"
     inkscape:showpageshadow="2"
     inkscape:pageopacity="0.0"
     inkscape:pagecheckerboard="0"
     inkscape:deskcolor="#d1d1d1"
     showgrid="false"
     inkscape:zoom="11.767742"
     inkscape:cx="44.740954"
     inkscape:cy="19.969846"
     inkscape:window-width="1920"
     inkscape:window-height="1137"
     inkscape:window-x="-8"
     inkscape:window-y="-8"
     inkscape:window-maximized="1"
     inkscape:current-layer="logo-34" />
  <path
     d="M51.5821 10.2839H48V26.4472H57.9164V23.2801H51.5821V10.2839Z"
     class="ccustom"
     fill="#243A5A"
     id="path102" />
  <path
     d="M58.2585 20.9648C58.2585 24.4159 60.5738 26.7093 64.0685 26.7093C67.5414 26.7093 69.8567 24.4159 69.8567 20.9648C69.8567 17.5137 67.5414 15.1984 64.0685 15.1984C60.5738 15.1984 58.2585 17.5137 58.2585 20.9648ZM61.644 20.9429C61.644 19.3048 62.6051 18.2127 64.0685 18.2127C65.5101 18.2127 66.4712 19.3048 66.4712 20.9429C66.4712 22.603 65.5101 23.6951 64.0685 23.6951C62.6051 23.6951 61.644 22.603 61.644 20.9429Z"
     class="ccustom"
     fill="#243A5A"
     id="path104" />
  <path
     d="M70.3978 20.7901C70.3978 24.0882 72.5384 26.3161 75.5744 26.3161C77.0379 26.3161 78.3047 25.7919 78.9381 24.9401V26.4472C78.9381 27.9543 77.9989 28.959 76.3389 28.959C74.8536 28.959 73.827 28.2601 73.7615 27.0151H70.3541C70.6599 30.0075 72.9752 32.0169 76.1423 32.0169C79.8773 32.0169 82.2363 29.5925 82.2363 25.7482V15.5261H79.2002L79.0255 16.64C78.4139 15.7445 77.1252 15.1548 75.64 15.1548C72.582 15.1548 70.3978 17.4482 70.3978 20.7901ZM73.8052 20.7027C73.8052 19.13 74.8536 18.0816 76.186 18.0816C77.7368 18.0816 78.8726 19.1082 78.8726 20.7027C78.8726 22.2972 77.7586 23.3893 76.2078 23.3893C74.8755 23.3893 73.8052 22.2972 73.8052 20.7027Z"
     class="ccustom"
     fill="#243A5A"
     id="path106" />
  <path
     d="M83.2166 20.9648C83.2166 24.4159 85.5319 26.7093 89.0267 26.7093C92.4996 26.7093 94.8148 24.4159 94.8148 20.9648C94.8148 17.5137 92.4996 15.1984 89.0267 15.1984C85.5319 15.1984 83.2166 17.5137 83.2166 20.9648ZM86.6022 20.9429C86.6022 19.3048 87.5632 18.2127 89.0267 18.2127C90.4682 18.2127 91.4293 19.3048 91.4293 20.9429C91.4293 22.603 90.4682 23.6951 89.0267 23.6951C87.5632 23.6951 86.6022 22.603 86.6022 20.9429Z"
     class="ccustom"
     fill="#243A5A"
     id="path108" />
  <path
     d="M97.7149 13.8224C98.7633 13.8224 99.6152 12.9705 99.6152 11.9003C99.6152 10.83 98.7633 10 97.7149 10C96.6446 10 95.7928 10.83 95.7928 11.9003C95.7928 12.9705 96.6446 13.8224 97.7149 13.8224ZM96.0112 26.4472H99.3968V15.5261H96.0112V26.4472Z"
     class="ccustom"
     fill="#243A5A"
     id="path110" />
  <path
     d="M101.368 31.6893H104.688V25.3551C105.321 26.1851 106.763 26.753 108.27 26.753C111.524 26.753 113.49 24.263 113.403 20.8119C113.315 17.2953 111.284 15.1766 108.248 15.1766C106.697 15.1766 105.234 15.8537 104.622 16.8585L104.447 15.5261H101.368V31.6893ZM104.753 20.9866C104.753 19.3485 105.845 18.2564 107.418 18.2564C109.012 18.2564 110.017 19.3703 110.017 20.9866C110.017 22.603 109.012 23.7169 107.418 23.7169C105.845 23.7169 104.753 22.6248 104.753 20.9866Z"
     class="ccustom"
     fill="#243A5A"
     id="path112" />
  <path
     d="M113.761 22.9961C113.848 25.2022 115.596 26.7311 118.348 26.7311C120.991 26.7311 122.826 25.3332 122.826 23.0835C122.826 21.4672 121.865 20.3969 120.073 19.96L118.13 19.4795C117.431 19.3048 116.994 19.13 116.994 18.5621C116.994 17.9942 117.452 17.6229 118.13 17.6229C118.894 17.6229 119.396 18.1253 119.375 18.8679H122.411C122.323 16.5963 120.598 15.1766 118.195 15.1766C115.771 15.1766 113.958 16.6182 113.958 18.8024C113.958 20.2658 114.766 21.4672 116.928 22.0351L118.85 22.5374C119.418 22.6903 119.658 22.9524 119.658 23.3237C119.658 23.8698 119.156 24.2193 118.304 24.2193C117.321 24.2193 116.797 23.7606 116.797 22.9961H113.761Z"
     class="ccustom"
     fill="#243A5A"
     id="path114" />
  <path
     d="M127.974 26.7311C129.307 26.7311 130.639 26.1195 131.316 25.224L131.535 26.4472H134.702V15.5261H131.338V21.2051C131.338 22.8432 130.858 23.7387 129.307 23.7387C128.105 23.7387 127.319 23.1927 127.319 21.1614V15.5261H123.955V22.3845C123.955 24.9838 125.397 26.7311 127.974 26.7311Z"
     class="ccustom"
     fill="#243A5A"
     id="path116" />
  <path
     d="M140.036 26.4472V20.4843C140.036 18.6495 141.019 18.1253 141.98 18.1253C143.05 18.1253 143.749 18.7806 143.749 20.1348V26.4472H147.069V20.4843C147.069 18.6277 148.03 18.1035 148.991 18.1035C150.061 18.1035 150.782 18.7587 150.782 20.1348V26.4472H154.059V19.3048C154.059 16.8148 152.748 15.1548 149.93 15.1548C148.358 15.1548 147.069 15.9192 146.501 17.0987C145.846 15.9192 144.71 15.1548 142.897 15.1548C141.696 15.1548 140.582 15.7008 139.927 16.5745L139.796 15.5261H136.65V26.4472H140.036Z"
     class="ccustom"
     fill="#243A5A"
     id="path118" />
  <path
     d="M0 20C0 10.5719 0 5.85786 2.92893 2.92893C5.85786 0 10.5719 0 20 0C29.4281 0 34.1421 0 37.0711 2.92893C40 5.85786 40 10.5719 40 20C40 29.4281 40 34.1421 37.0711 37.0711C34.1421 40 29.4281 40 20 40C10.5719 40 5.85786 40 2.92893 37.0711C0 34.1421 0 29.4281 0 20Z"
     class="ccustom"
     fill="#243A5A"
     id="path120"
     style="fill:#032c4b;fill-opacity:1" />
  <path
     d="m 24.339908,26.075537 c 0.599234,0 1.095936,0.537474 0.976915,1.180993 -0.210378,1.136531 -0.721403,2.189962 -1.480886,3.022151 -1.017277,1.114774 -2.397152,1.741056 -3.835941,1.741056 -1.438789,0 -2.818557,-0.626282 -3.835941,-1.741056 -0.759484,-0.832189 -1.270508,-1.88562 -1.480778,-3.022151 -0.11913,-0.643519 0.377573,-1.180993 0.976806,-1.180993 z"
     class="ccompli2"
     fill="#2DF8BB"
     id="path122"
     style="fill:#5ae3e7;fill-opacity:1;stroke-width:1.13571" />
  <path
     d="m 26.620858,16.214131 c -0.578835,0.169886 -0.933299,0.833376 -0.639811,1.405803 0.308892,0.602505 0.736156,1.128329 1.25597,1.536458 0.816121,0.640785 1.809744,0.951785 2.81172,0.879741 1.00187,-0.07192 1.950032,-0.522257 2.682826,-1.274318 0.732904,-0.752061 1.204977,-1.759364 1.336042,-2.850125 0.131066,-1.09076 -0.08702,-2.197571 -0.617244,-3.13188 -0.530228,-0.934191 -1.33973,-1.638104 -2.290497,-1.991784 -0.950767,-0.35368 -1.983991,-0.335133 -2.923691,0.05243 -0.598474,0.246804 -1.13532,0.633533 -1.576038,1.127853 -0.418694,0.469711 -0.233055,1.21119 0.28589,1.53943 l 0.55041,0.34821 c 0.83706,0.52963 0.672036,1.90381 -0.261697,2.177956 z"
     class="ccompli2"
     fill="#2DF8BB"
     id="path124"
     style="fill:#5ae3e7;fill-opacity:1;stroke-width:1.13571" />
  <path
     d="m 13.379243,16.214131 c 0.578835,0.169886 0.933298,0.833376 0.639811,1.405803 -0.308893,0.602505 -0.736157,1.128329 -1.255863,1.536458 -0.81612,0.640785 -1.809852,0.951785 -2.8117205,0.879741 -1.0019556,-0.07193 -1.950107,-0.522257 -2.6829338,-1.274318 -0.7328268,-0.752061 -1.2049984,-1.759364 -1.336053,-2.850125 -0.1310546,-1.09076 0.087102,-2.197571 0.6173201,-3.13188 0.530207,-0.934191 1.3396659,-1.638104 2.2904431,-1.991784 0.9507554,-0.35368 1.9840881,-0.335133 2.9237881,0.05243 0.598366,0.246804 1.135322,0.633533 1.57604,1.127853 0.418692,0.469711 0.232944,1.21119 -0.286,1.53943 l -0.55041,0.34821 c -0.837061,0.52963 -0.671928,1.90381 0.261696,2.177956 z"
     class="ccompli2"
     fill="#2DF8BB"
     id="path126"
     style="fill:#5ae3e7;fill-opacity:1;stroke-width:1.13571" />
</svg>
